<?xml version="1.0" encoding="UTF-8" standalone="no"?>
<!DOCTYPE svg PUBLIC "-//W3C//DTD SVG 1.1//EN"
 "http://www.w3.org/Graphics/SVG/1.1/DTD/svg11.dtd">
<!-- Generated by graphviz version 2.43.0 (0)
 -->
<!-- Title: %3 Pages: 1 -->
<svg width="806pt" height="1164pt"
 viewBox="0.00 0.00 805.50 1164.00" xmlns="http://www.w3.org/2000/svg" xmlns:xlink="http://www.w3.org/1999/xlink">
<g id="graph0" class="graph" transform="scale(1 1) rotate(0) translate(4 1160)">
<title>%3</title>
<polygon fill="white" stroke="transparent" points="-4,4 -4,-1160 801.5,-1160 801.5,4 -4,4"/>
<!-- 4 -->
<g id="node1" class="node">
<title>4</title>
<g id="a_node1"><a xlink:title="~">
<polygon fill="#0d1575" stroke="#0d1575" points="398,-1064 87,-1064 87,-1012 398,-1012 398,-1064"/>
<text text-anchor="middle" x="242.5" y="-1052" font-family="Arial" font-size="10.00" fill="#ffffff">~:0:&lt;built&#45;in method rerun_bindings.rerun_bindings.log_arrow_msg&gt;</text>
<text text-anchor="middle" x="242.5" y="-1041" font-family="Arial" font-size="10.00" fill="#ffffff">2.03%</text>
<text text-anchor="middle" x="242.5" y="-1030" font-family="Arial" font-size="10.00" fill="#ffffff">(2.03%)</text>
<text text-anchor="middle" x="242.5" y="-1019" font-family="Arial" font-size="10.00" fill="#ffffff">1766×</text>
</a>
</g>
</g>
<!-- 5 -->
<g id="node2" class="node">
<title>5</title>
<g id="a_node2"><a xlink:title="/home/filipjeretina/Documents/dev/depthai&#45;viewer/venv/lib/python3.10/site&#45;packages/rerun_sdk/depthai_viewer/log/tensor.py">
<polygon fill="#0ba45b" stroke="#0ba45b" points="519.5,-1156 409.5,-1156 409.5,-1104 519.5,-1104 519.5,-1156"/>
<text text-anchor="middle" x="464.5" y="-1144" font-family="Arial" font-size="10.00" fill="#ffffff">tensor:80:_log_tensor</text>
<text text-anchor="middle" x="464.5" y="-1133" font-family="Arial" font-size="10.00" fill="#ffffff">36.90%</text>
<text text-anchor="middle" x="464.5" y="-1122" font-family="Arial" font-size="10.00" fill="#ffffff">(0.23%)</text>
<text text-anchor="middle" x="464.5" y="-1111" font-family="Arial" font-size="10.00" fill="#ffffff">1766×</text>
</a>
</g>
</g>
<!-- 5&#45;&gt;4 -->
<g id="edge1" class="edge">
<title>5&#45;&gt;4</title>
<path fill="none" stroke="#0d1575" stroke-width="0.5" d="M409.34,-1106.64C378.61,-1094.18 340.16,-1078.59 307.93,-1065.52"/>
<polygon fill="#0d1575" stroke="#0d1575" stroke-width="0.5" points="308.13,-1064.29 304.43,-1064.11 307.21,-1066.56 308.13,-1064.29"/>
<text text-anchor="middle" x="394.5" y="-1087" font-family="Arial" font-size="10.00" fill="#0d1575">2.03%</text>
<text text-anchor="middle" x="394.5" y="-1076" font-family="Arial" font-size="10.00" fill="#0d1575">1766×</text>
</g>
<!-- 570 -->
<g id="node3" class="node">
<title>570</title>
<g id="a_node3"><a xlink:title="/home/filipjeretina/Documents/dev/depthai&#45;viewer/venv/lib/python3.10/site&#45;packages/rerun_sdk/depthai_viewer/components/tensor.py">
<polygon fill="#0ba067" stroke="#0ba067" points="521.5,-1064 407.5,-1064 407.5,-1012 521.5,-1012 521.5,-1064"/>
<text text-anchor="middle" x="464.5" y="-1052" font-family="Arial" font-size="10.00" fill="#ffffff">tensor:54:from_numpy</text>
<text text-anchor="middle" x="464.5" y="-1041" font-family="Arial" font-size="10.00" fill="#ffffff">34.64%</text>
<text text-anchor="middle" x="464.5" y="-1030" font-family="Arial" font-size="10.00" fill="#ffffff">(1.16%)</text>
<text text-anchor="middle" x="464.5" y="-1019" font-family="Arial" font-size="10.00" fill="#ffffff">1766×</text>
</a>
</g>
</g>
<!-- 5&#45;&gt;570 -->
<g id="edge2" class="edge">
<title>5&#45;&gt;570</title>
<path fill="none" stroke="#0ba067" stroke-width="1.39" d="M464.5,-1103.93C464.5,-1093.49 464.5,-1081.25 464.5,-1070.23"/>
<polygon fill="#0ba067" stroke="#0ba067" stroke-width="1.39" points="466.57,-1070.15 464.5,-1064.25 462.44,-1070.15 466.57,-1070.15"/>
<text text-anchor="middle" x="481.5" y="-1087" font-family="Arial" font-size="10.00" fill="#0ba067">34.64%</text>
<text text-anchor="middle" x="481.5" y="-1076" font-family="Arial" font-size="10.00" fill="#0ba067">1766×</text>
</g>
<!-- 319 -->
<g id="node10" class="node">
<title>319</title>
<g id="a_node10"><a xlink:title="/home/filipjeretina/Documents/dev/depthai&#45;viewer/venv/lib/python3.10/site&#45;packages/rerun_sdk/depthai_viewer/components/__init__.py">
<polygon fill="#0d1976" stroke="#0d1976" points="219,-972 72,-972 72,-920 219,-920 219,-972"/>
<text text-anchor="middle" x="145.5" y="-960" font-family="Arial" font-size="10.00" fill="#ffffff">__init__:68:build_dense_union</text>
<text text-anchor="middle" x="145.5" y="-949" font-family="Arial" font-size="10.00" fill="#ffffff">2.89%</text>
<text text-anchor="middle" x="145.5" y="-938" font-family="Arial" font-size="10.00" fill="#ffffff">(0.50%)</text>
<text text-anchor="middle" x="145.5" y="-927" font-family="Arial" font-size="10.00" fill="#ffffff">3532×</text>
</a>
</g>
</g>
<!-- 570&#45;&gt;319 -->
<g id="edge12" class="edge">
<title>570&#45;&gt;319</title>
<path fill="none" stroke="#0d1976" stroke-width="0.5" d="M407.2,-1013.49C405.62,-1012.97 404.05,-1012.48 402.5,-1012 384.25,-1006.41 379.14,-1007.11 360.5,-1003 299.53,-989.57 283.73,-988.43 223.5,-972 223.24,-971.93 222.99,-971.86 222.73,-971.79"/>
<polygon fill="#0d1976" stroke="#0d1976" stroke-width="0.5" points="223.05,-970.61 219.35,-970.85 222.4,-972.97 223.05,-970.61"/>
<text text-anchor="middle" x="374.5" y="-995" font-family="Arial" font-size="10.00" fill="#0d1976">2.89%</text>
<text text-anchor="middle" x="374.5" y="-984" font-family="Arial" font-size="10.00" fill="#0d1976">3532×</text>
</g>
<!-- 822 -->
<g id="node11" class="node">
<title>822</title>
<g id="a_node11"><a xlink:title="~">
<polygon fill="#0d1274" stroke="#0d1274" points="572.5,-880 342.5,-880 342.5,-828 572.5,-828 572.5,-880"/>
<text text-anchor="middle" x="457.5" y="-868" font-family="Arial" font-size="10.00" fill="#ffffff">~:0:&lt;method &#39;cast&#39; of &#39;pyarrow.lib.Array&#39; objects&gt;</text>
<text text-anchor="middle" x="457.5" y="-857" font-family="Arial" font-size="10.00" fill="#ffffff">1.16%</text>
<text text-anchor="middle" x="457.5" y="-846" font-family="Arial" font-size="10.00" fill="#ffffff">(0.09%)</text>
<text text-anchor="middle" x="457.5" y="-835" font-family="Arial" font-size="10.00" fill="#ffffff">8830×</text>
</a>
</g>
</g>
<!-- 570&#45;&gt;822 -->
<g id="edge13" class="edge">
<title>570&#45;&gt;822</title>
<path fill="none" stroke="#0d0e73" stroke-width="0.5" d="M521.55,-1029.77C586.03,-1020.28 685,-1001.31 707.5,-972 721.57,-953.67 721.64,-938.28 707.5,-920 690.66,-898.22 632.44,-882.37 576.43,-871.79"/>
<polygon fill="#0d0e73" stroke="#0d0e73" stroke-width="0.5" points="576.41,-870.54 572.74,-871.1 575.96,-872.95 576.41,-870.54"/>
<text text-anchor="middle" x="731.5" y="-949" font-family="Arial" font-size="10.00" fill="#0d0e73">0.23%</text>
<text text-anchor="middle" x="731.5" y="-938" font-family="Arial" font-size="10.00" fill="#0d0e73">1766×</text>
</g>
<!-- 897 -->
<g id="node12" class="node">
<title>897</title>
<g id="a_node12"><a xlink:title="~">
<polygon fill="#0d4081" stroke="#0d4081" points="117,-880 0,-880 0,-828 117,-828 117,-880"/>
<text text-anchor="middle" x="58.5" y="-868" font-family="Arial" font-size="10.00" fill="#ffffff">~:0:&lt;pyarrow.lib.array&gt;</text>
<text text-anchor="middle" x="58.5" y="-857" font-family="Arial" font-size="10.00" fill="#ffffff">11.13%</text>
<text text-anchor="middle" x="58.5" y="-846" font-family="Arial" font-size="10.00" fill="#ffffff">(10.70%)</text>
<text text-anchor="middle" x="58.5" y="-835" font-family="Arial" font-size="10.00" fill="#ffffff">14128×</text>
</a>
</g>
</g>
<!-- 570&#45;&gt;897 -->
<g id="edge14" class="edge">
<title>570&#45;&gt;897</title>
<path fill="none" stroke="#0d3d80" stroke-width="0.5" d="M407.28,-1013.18C405.68,-1012.75 404.08,-1012.36 402.5,-1012 322.06,-993.77 87.7,-1034.18 33.5,-972 12.25,-947.63 26.09,-909.63 40.2,-883.59"/>
<polygon fill="#0d3d80" stroke="#0d3d80" stroke-width="0.5" points="41.3,-884.14 41.92,-880.48 39.16,-882.95 41.3,-884.14"/>
<text text-anchor="middle" x="50.5" y="-949" font-family="Arial" font-size="10.00" fill="#0d3d80">10.51%</text>
<text text-anchor="middle" x="50.5" y="-938" font-family="Arial" font-size="10.00" fill="#0d3d80">7064×</text>
</g>
<!-- 1402 -->
<g id="node16" class="node">
<title>1402</title>
<g id="a_node16"><a xlink:title="~">
<polygon fill="#0d387f" stroke="#0d387f" points="458.5,-972 228.5,-972 228.5,-920 458.5,-920 458.5,-972"/>
<text text-anchor="middle" x="343.5" y="-960" font-family="Arial" font-size="10.00" fill="#ffffff">~:0:&lt;method &#39;flatten&#39; of &#39;numpy.ndarray&#39; objects&gt;</text>
<text text-anchor="middle" x="343.5" y="-949" font-family="Arial" font-size="10.00" fill="#ffffff">9.52%</text>
<text text-anchor="middle" x="343.5" y="-938" font-family="Arial" font-size="10.00" fill="#ffffff">(9.52%)</text>
<text text-anchor="middle" x="343.5" y="-927" font-family="Arial" font-size="10.00" fill="#ffffff">1766×</text>
</a>
</g>
</g>
<!-- 570&#45;&gt;1402 -->
<g id="edge15" class="edge">
<title>570&#45;&gt;1402</title>
<path fill="none" stroke="#0d387f" stroke-width="0.5" d="M430.79,-1011.93C415.19,-1000.32 396.61,-986.5 380.61,-974.6"/>
<polygon fill="#0d387f" stroke="#0d387f" stroke-width="0.5" points="380.98,-973.35 377.44,-972.25 379.52,-975.32 380.98,-973.35"/>
<text text-anchor="middle" x="432.5" y="-995" font-family="Arial" font-size="10.00" fill="#0d387f">9.52%</text>
<text text-anchor="middle" x="432.5" y="-984" font-family="Arial" font-size="10.00" fill="#0d387f">1766×</text>
</g>
<!-- 1403 -->
<g id="node17" class="node">
<title>1403</title>
<g id="a_node17"><a xlink:title="~">
<polygon fill="#0d357e" stroke="#0d357e" points="703,-972 468,-972 468,-920 703,-920 703,-972"/>
<text text-anchor="middle" x="585.5" y="-960" font-family="Arial" font-size="10.00" fill="#ffffff">~:0:&lt;method &#39;tobytes&#39; of &#39;numpy.ndarray&#39; objects&gt;</text>
<text text-anchor="middle" x="585.5" y="-949" font-family="Arial" font-size="10.00" fill="#ffffff">8.95%</text>
<text text-anchor="middle" x="585.5" y="-938" font-family="Arial" font-size="10.00" fill="#ffffff">(8.95%)</text>
<text text-anchor="middle" x="585.5" y="-927" font-family="Arial" font-size="10.00" fill="#ffffff">1766×</text>
</a>
</g>
</g>
<!-- 570&#45;&gt;1403 -->
<g id="edge16" class="edge">
<title>570&#45;&gt;1403</title>
<path fill="none" stroke="#0d357e" stroke-width="0.5" d="M498.21,-1011.93C513.81,-1000.32 532.39,-986.5 548.39,-974.6"/>
<polygon fill="#0d357e" stroke="#0d357e" stroke-width="0.5" points="549.48,-975.32 551.56,-972.25 548.02,-973.35 549.48,-975.32"/>
<text text-anchor="middle" x="553.5" y="-995" font-family="Arial" font-size="10.00" fill="#0d357e">8.95%</text>
<text text-anchor="middle" x="553.5" y="-984" font-family="Arial" font-size="10.00" fill="#0d357e">1766×</text>
</g>
<!-- 9 -->
<g id="node4" class="node">
<title>9</title>
<g id="a_node4"><a xlink:title="/home/filipjeretina/Documents/dev/depthai&#45;viewer/venv/lib/python3.10/site&#45;packages/rerun_sdk/depthai_viewer/log/log_decorator.py">
<polygon fill="#0ba459" stroke="#0ba459" points="749.5,-144 623.5,-144 623.5,-92 749.5,-92 749.5,-144"/>
<text text-anchor="middle" x="686.5" y="-132" font-family="Arial" font-size="10.00" fill="#ffffff">log_decorator:25:wrapper</text>
<text text-anchor="middle" x="686.5" y="-121" font-family="Arial" font-size="10.00" fill="#ffffff">37.21%</text>
<text text-anchor="middle" x="686.5" y="-110" font-family="Arial" font-size="10.00" fill="#ffffff">(0.09%)</text>
<text text-anchor="middle" x="686.5" y="-99" font-family="Arial" font-size="10.00" fill="#ffffff">1766×</text>
</a>
</g>
</g>
<!-- 569 -->
<g id="node5" class="node">
<title>569</title>
<g id="a_node5"><a xlink:title="/home/filipjeretina/Documents/dev/depthai&#45;viewer/venv/lib/python3.10/site&#45;packages/rerun_sdk/depthai_viewer/log/image.py">
<polygon fill="#0ba45a" stroke="#0ba45a" points="777.5,-52 673.5,-52 673.5,0 777.5,0 777.5,-52"/>
<text text-anchor="middle" x="725.5" y="-40" font-family="Arial" font-size="10.00" fill="#ffffff">image:18:log_image</text>
<text text-anchor="middle" x="725.5" y="-29" font-family="Arial" font-size="10.00" fill="#ffffff">37.08%</text>
<text text-anchor="middle" x="725.5" y="-18" font-family="Arial" font-size="10.00" fill="#ffffff">(0.13%)</text>
<text text-anchor="middle" x="725.5" y="-7" font-family="Arial" font-size="10.00" fill="#ffffff">1766×</text>
</a>
</g>
</g>
<!-- 9&#45;&gt;569 -->
<g id="edge3" class="edge">
<title>9&#45;&gt;569</title>
<path fill="none" stroke="#0ba45a" stroke-width="1.48" d="M697.36,-91.93C701.93,-81.39 707.29,-69.02 712.1,-57.92"/>
<polygon fill="#0ba45a" stroke="#0ba45a" stroke-width="1.48" points="714.09,-58.69 714.56,-52.25 710.17,-57 714.09,-58.69"/>
<text text-anchor="middle" x="727.5" y="-75" font-family="Arial" font-size="10.00" fill="#0ba45a">37.08%</text>
<text text-anchor="middle" x="727.5" y="-64" font-family="Arial" font-size="10.00" fill="#0ba45a">1766×</text>
</g>
<!-- 569&#45;&gt;5 -->
<g id="edge11" class="edge">
<title>569&#45;&gt;5</title>
<path fill="none" stroke="#0ba45b" stroke-width="1.48" d="M742.5,-52.2C752.62,-69.62 763.5,-93.76 763.5,-117 763.5,-1039 763.5,-1039 763.5,-1039 763.5,-1088.17 613.38,-1112.84 525.88,-1123.05"/>
<polygon fill="#0ba45b" stroke="#0ba45b" stroke-width="1.48" points="525.51,-1120.95 519.69,-1123.76 525.99,-1125.19 525.51,-1120.95"/>
<text text-anchor="middle" x="780.5" y="-581" font-family="Arial" font-size="10.00" fill="#0ba45b">36.90%</text>
<text text-anchor="middle" x="780.5" y="-570" font-family="Arial" font-size="10.00" fill="#0ba45b">1766×</text>
</g>
<!-- 98 -->
<g id="node6" class="node">
<title>98</title>
<g id="a_node6"><a xlink:title="&lt;frozen importlib._bootstrap&gt;">
<polygon fill="#0d1074" stroke="#0d1074" points="735,-696 514,-696 514,-644 735,-644 735,-696"/>
<text text-anchor="middle" x="624.5" y="-684" font-family="Arial" font-size="10.00" fill="#ffffff">&lt;frozen importlib:987:_find_and_load_unlocked</text>
<text text-anchor="middle" x="624.5" y="-673" font-family="Arial" font-size="10.00" fill="#ffffff">0.76%</text>
<text text-anchor="middle" x="624.5" y="-662" font-family="Arial" font-size="10.00" fill="#ffffff">(0.00%)</text>
<text text-anchor="middle" x="624.5" y="-651" font-family="Arial" font-size="10.00" fill="#ffffff">293×</text>
</a>
</g>
</g>
<!-- 244 -->
<g id="node7" class="node">
<title>244</title>
<g id="a_node7"><a xlink:title="&lt;frozen importlib._bootstrap&gt;">
<polygon fill="#0d1074" stroke="#0d1074" points="715,-604 536,-604 536,-552 715,-552 715,-604"/>
<text text-anchor="middle" x="625.5" y="-592" font-family="Arial" font-size="10.00" fill="#ffffff">&lt;frozen importlib:664:_load_unlocked</text>
<text text-anchor="middle" x="625.5" y="-581" font-family="Arial" font-size="10.00" fill="#ffffff">0.76%</text>
<text text-anchor="middle" x="625.5" y="-570" font-family="Arial" font-size="10.00" fill="#ffffff">(0.00%)</text>
<text text-anchor="middle" x="625.5" y="-559" font-family="Arial" font-size="10.00" fill="#ffffff">270×</text>
</a>
</g>
</g>
<!-- 98&#45;&gt;244 -->
<g id="edge4" class="edge">
<title>98&#45;&gt;244</title>
<path fill="none" stroke="#0d1074" stroke-width="0.5" d="M624.78,-643.93C624.9,-632.71 625.05,-619.42 625.18,-607.8"/>
<polygon fill="#0d1074" stroke="#0d1074" stroke-width="0.5" points="626.41,-607.76 625.22,-604.25 623.96,-607.73 626.41,-607.76"/>
<text text-anchor="middle" x="638.5" y="-627" font-family="Arial" font-size="10.00" fill="#0d1074">0.76%</text>
<text text-anchor="middle" x="638.5" y="-616" font-family="Arial" font-size="10.00" fill="#0d1074">5×</text>
</g>
<!-- 1672 -->
<g id="node9" class="node">
<title>1672</title>
<g id="a_node9"><a xlink:title="&lt;frozen importlib._bootstrap_external&gt;">
<polygon fill="#0d1074" stroke="#0d1074" points="712,-512 543,-512 543,-460 712,-460 712,-512"/>
<text text-anchor="middle" x="627.5" y="-500" font-family="Arial" font-size="10.00" fill="#ffffff">&lt;frozen importlib:877:exec_module</text>
<text text-anchor="middle" x="627.5" y="-489" font-family="Arial" font-size="10.00" fill="#ffffff">0.70%</text>
<text text-anchor="middle" x="627.5" y="-478" font-family="Arial" font-size="10.00" fill="#ffffff">(0.00%)</text>
<text text-anchor="middle" x="627.5" y="-467" font-family="Arial" font-size="10.00" fill="#ffffff">219×</text>
</a>
</g>
</g>
<!-- 244&#45;&gt;1672 -->
<g id="edge6" class="edge">
<title>244&#45;&gt;1672</title>
<path fill="none" stroke="#0d1074" stroke-width="0.5" d="M626.06,-551.93C626.31,-540.71 626.6,-527.42 626.86,-515.8"/>
<polygon fill="#0d1074" stroke="#0d1074" stroke-width="0.5" points="628.09,-515.77 626.94,-512.25 625.64,-515.72 628.09,-515.77"/>
<text text-anchor="middle" x="640.5" y="-535" font-family="Arial" font-size="10.00" fill="#0d1074">0.70%</text>
<text text-anchor="middle" x="640.5" y="-524" font-family="Arial" font-size="10.00" fill="#0d1074">6×</text>
</g>
<!-- 239 -->
<g id="node8" class="node">
<title>239</title>
<g id="a_node8"><a xlink:title="&lt;frozen importlib._bootstrap&gt;">
<polygon fill="#0d1074" stroke="#0d1074" points="609.5,-788 427.5,-788 427.5,-736 609.5,-736 609.5,-788"/>
<text text-anchor="middle" x="518.5" y="-776" font-family="Arial" font-size="10.00" fill="#ffffff">&lt;frozen importlib:1022:_find_and_load</text>
<text text-anchor="middle" x="518.5" y="-765" font-family="Arial" font-size="10.00" fill="#ffffff">0.76%</text>
<text text-anchor="middle" x="518.5" y="-754" font-family="Arial" font-size="10.00" fill="#ffffff">(0.00%)</text>
<text text-anchor="middle" x="518.5" y="-743" font-family="Arial" font-size="10.00" fill="#ffffff">293×</text>
</a>
</g>
</g>
<!-- 239&#45;&gt;98 -->
<g id="edge5" class="edge">
<title>239&#45;&gt;98</title>
<path fill="none" stroke="#0d1074" stroke-width="0.5" d="M548.03,-735.93C561.7,-724.32 577.97,-710.5 591.99,-698.6"/>
<polygon fill="#0d1074" stroke="#0d1074" stroke-width="0.5" points="592.89,-699.45 594.76,-696.25 591.3,-697.58 592.89,-699.45"/>
<text text-anchor="middle" x="597.5" y="-719" font-family="Arial" font-size="10.00" fill="#0d1074">0.76%</text>
<text text-anchor="middle" x="597.5" y="-708" font-family="Arial" font-size="10.00" fill="#0d1074">6×</text>
</g>
<!-- 429 -->
<g id="node13" class="node">
<title>429</title>
<g id="a_node13"><a xlink:title="&lt;frozen importlib._bootstrap&gt;">
<polygon fill="#0d1074" stroke="#0d1074" points="745,-420 512,-420 512,-368 745,-368 745,-420"/>
<text text-anchor="middle" x="628.5" y="-408" font-family="Arial" font-size="10.00" fill="#ffffff">&lt;frozen importlib:233:_call_with_frames_removed</text>
<text text-anchor="middle" x="628.5" y="-397" font-family="Arial" font-size="10.00" fill="#ffffff">0.76%</text>
<text text-anchor="middle" x="628.5" y="-386" font-family="Arial" font-size="10.00" fill="#ffffff">(0.00%)</text>
<text text-anchor="middle" x="628.5" y="-375" font-family="Arial" font-size="10.00" fill="#ffffff">389×</text>
</a>
</g>
</g>
<!-- 1672&#45;&gt;429 -->
<g id="edge23" class="edge">
<title>1672&#45;&gt;429</title>
<path fill="none" stroke="#0d1074" stroke-width="0.5" d="M627.78,-459.93C627.9,-448.71 628.05,-435.42 628.18,-423.8"/>
<polygon fill="#0d1074" stroke="#0d1074" stroke-width="0.5" points="629.41,-423.76 628.22,-420.25 626.96,-423.73 629.41,-423.76"/>
<text text-anchor="middle" x="641.5" y="-443" font-family="Arial" font-size="10.00" fill="#0d1074">0.69%</text>
<text text-anchor="middle" x="641.5" y="-432" font-family="Arial" font-size="10.00" fill="#0d1074">6×</text>
</g>
<!-- 319&#45;&gt;822 -->
<g id="edge7" class="edge">
<title>319&#45;&gt;822</title>
<path fill="none" stroke="#0d1174" stroke-width="0.5" d="M219.38,-921.24C220.76,-920.82 222.14,-920.41 223.5,-920 268.39,-906.58 318.4,-892.56 360.63,-880.99"/>
<polygon fill="#0d1174" stroke="#0d1174" stroke-width="0.5" points="361.12,-882.13 364.17,-880.02 360.47,-879.77 361.12,-882.13"/>
<text text-anchor="middle" x="340.5" y="-903" font-family="Arial" font-size="10.00" fill="#0d1174">0.93%</text>
<text text-anchor="middle" x="340.5" y="-892" font-family="Arial" font-size="10.00" fill="#0d1174">7064×</text>
</g>
<!-- 319&#45;&gt;897 -->
<g id="edge8" class="edge">
<title>319&#45;&gt;897</title>
<path fill="none" stroke="#0d0f74" stroke-width="0.5" d="M121.27,-919.93C110.14,-908.42 96.91,-894.73 85.47,-882.9"/>
<polygon fill="#0d0f74" stroke="#0d0f74" stroke-width="0.5" points="86.22,-881.91 82.91,-880.25 84.46,-883.62 86.22,-881.91"/>
<text text-anchor="middle" x="126.5" y="-903" font-family="Arial" font-size="10.00" fill="#0d0f74">0.62%</text>
<text text-anchor="middle" x="126.5" y="-892" font-family="Arial" font-size="10.00" fill="#0d0f74">7064×</text>
</g>
<!-- 822&#45;&gt;239 -->
<g id="edge21" class="edge">
<title>822&#45;&gt;239</title>
<path fill="none" stroke="#0d0e73" stroke-width="0.5" d="M474.49,-827.93C482.23,-816.52 491.41,-802.96 499.39,-791.2"/>
<polygon fill="#0d0e73" stroke="#0d0e73" stroke-width="0.5" points="500.44,-791.83 501.39,-788.25 498.41,-790.46 500.44,-791.83"/>
<text text-anchor="middle" x="509.5" y="-811" font-family="Arial" font-size="10.00" fill="#0d0e73">0.19%</text>
<text text-anchor="middle" x="509.5" y="-800" font-family="Arial" font-size="10.00" fill="#0d0e73">1×</text>
</g>
<!-- 816 -->
<g id="node20" class="node">
<title>816</title>
<g id="a_node20"><a xlink:title="/home/filipjeretina/Documents/dev/depthai&#45;viewer/venv/lib/python3.10/site&#45;packages/pyarrow/compute.py">
<polygon fill="#0d1074" stroke="#0d1074" points="418,-788 323,-788 323,-736 418,-736 418,-788"/>
<text text-anchor="middle" x="370.5" y="-776" font-family="Arial" font-size="10.00" fill="#ffffff">compute:326:cast</text>
<text text-anchor="middle" x="370.5" y="-765" font-family="Arial" font-size="10.00" fill="#ffffff">0.85%</text>
<text text-anchor="middle" x="370.5" y="-754" font-family="Arial" font-size="10.00" fill="#ffffff">(0.21%)</text>
<text text-anchor="middle" x="370.5" y="-743" font-family="Arial" font-size="10.00" fill="#ffffff">8830×</text>
</a>
</g>
</g>
<!-- 822&#45;&gt;816 -->
<g id="edge22" class="edge">
<title>822&#45;&gt;816</title>
<path fill="none" stroke="#0d1074" stroke-width="0.5" d="M433.27,-827.93C422.14,-816.42 408.91,-802.73 397.47,-790.9"/>
<polygon fill="#0d1074" stroke="#0d1074" stroke-width="0.5" points="398.22,-789.91 394.91,-788.25 396.46,-791.62 398.22,-789.91"/>
<text text-anchor="middle" x="438.5" y="-811" font-family="Arial" font-size="10.00" fill="#0d1074">0.85%</text>
<text text-anchor="middle" x="438.5" y="-800" font-family="Arial" font-size="10.00" fill="#0d1074">8830×</text>
</g>
<!-- 456 -->
<g id="node14" class="node">
<title>456</title>
<g id="a_node14"><a xlink:title="~">
<polygon fill="#ff0000" stroke="#ff0000" points="703,-328 536,-328 536,-276 703,-276 703,-328"/>
<text text-anchor="middle" x="619.5" y="-316" font-family="Arial" font-size="10.00" fill="#ffffff">~:0:&lt;built&#45;in method builtins.exec&gt;</text>
<text text-anchor="middle" x="619.5" y="-305" font-family="Arial" font-size="10.00" fill="#ffffff">100.00%</text>
<text text-anchor="middle" x="619.5" y="-294" font-family="Arial" font-size="10.00" fill="#ffffff">(0.00%)</text>
<text text-anchor="middle" x="619.5" y="-283" font-family="Arial" font-size="10.00" fill="#ffffff">235×</text>
</a>
</g>
</g>
<!-- 429&#45;&gt;456 -->
<g id="edge9" class="edge">
<title>429&#45;&gt;456</title>
<path fill="none" stroke="#0d1074" stroke-width="0.5" d="M625.99,-367.93C624.87,-356.71 623.54,-343.42 622.38,-331.8"/>
<polygon fill="#0d1074" stroke="#0d1074" stroke-width="0.5" points="623.59,-331.61 622.02,-328.25 621.15,-331.85 623.59,-331.61"/>
<text text-anchor="middle" x="638.5" y="-351" font-family="Arial" font-size="10.00" fill="#0d1074">0.69%</text>
<text text-anchor="middle" x="638.5" y="-340" font-family="Arial" font-size="10.00" fill="#0d1074">6×</text>
</g>
<!-- 595 -->
<g id="node15" class="node">
<title>595</title>
<g id="a_node15"><a xlink:title="api.py">
<polygon fill="#ff0000" stroke="#ff0000" points="644.5,-236 560.5,-236 560.5,-184 644.5,-184 644.5,-236"/>
<text text-anchor="middle" x="602.5" y="-224" font-family="Arial" font-size="10.00" fill="#ffffff">api:1:&lt;module&gt;</text>
<text text-anchor="middle" x="602.5" y="-213" font-family="Arial" font-size="10.00" fill="#ffffff">100.00%</text>
<text text-anchor="middle" x="602.5" y="-202" font-family="Arial" font-size="10.00" fill="#ffffff">(58.32%)</text>
<text text-anchor="middle" x="602.5" y="-191" font-family="Arial" font-size="10.00" fill="#ffffff">1×</text>
</a>
</g>
</g>
<!-- 456&#45;&gt;595 -->
<g id="edge10" class="edge">
<title>456&#45;&gt;595</title>
<path fill="none" stroke="#ff0000" stroke-width="4" d="M614.76,-275.93C613.03,-266.74 611.03,-256.17 609.16,-246.25"/>
<polygon fill="#ff0000" stroke="#ff0000" stroke-width="4" points="612.56,-245.42 607.27,-236.25 605.69,-246.72 612.56,-245.42"/>
<text text-anchor="middle" x="632" y="-259" font-family="Arial" font-size="10.00" fill="#ff0000">100.00%</text>
<text text-anchor="middle" x="632" y="-248" font-family="Arial" font-size="10.00" fill="#ff0000">1×</text>
</g>
<!-- 595&#45;&gt;9 -->
<g id="edge17" class="edge">
<title>595&#45;&gt;9</title>
<path fill="none" stroke="#0ba459" stroke-width="1.49" d="M625.9,-183.93C636.01,-173.1 647.92,-160.34 658.49,-149.01"/>
<polygon fill="#0ba459" stroke="#0ba459" stroke-width="1.49" points="660.33,-150.16 662.94,-144.25 657.21,-147.25 660.33,-150.16"/>
<text text-anchor="middle" x="670.5" y="-167" font-family="Arial" font-size="10.00" fill="#0ba459">37.21%</text>
<text text-anchor="middle" x="670.5" y="-156" font-family="Arial" font-size="10.00" fill="#0ba459">1766×</text>
</g>
<!-- 595&#45;&gt;239 -->
<g id="edge18" class="edge">
<title>595&#45;&gt;239</title>
<path fill="none" stroke="#0d0f73" stroke-width="0.5" d="M560.4,-227.45C531.19,-241.94 497.5,-266.19 497.5,-301 497.5,-671 497.5,-671 497.5,-671 497.5,-691.91 502.94,-714.85 508.28,-732.34"/>
<polygon fill="#0d0f73" stroke="#0d0f73" stroke-width="0.5" points="507.14,-732.78 509.35,-735.76 509.48,-732.06 507.14,-732.78"/>
<text text-anchor="middle" x="511.5" y="-489" font-family="Arial" font-size="10.00" fill="#0d0f73">0.54%</text>
<text text-anchor="middle" x="511.5" y="-478" font-family="Arial" font-size="10.00" fill="#0d0f73">3×</text>
</g>
<!-- 843 -->
<g id="node18" class="node">
<title>843</title>
<g id="a_node18"><a xlink:title="~">
<polygon fill="#0d1d78" stroke="#0d1d78" points="614,-144 531,-144 531,-92 614,-92 614,-144"/>
<text text-anchor="middle" x="572.5" y="-132" font-family="Arial" font-size="10.00" fill="#ffffff">~:0:&lt;cvtColor&gt;</text>
<text text-anchor="middle" x="572.5" y="-121" font-family="Arial" font-size="10.00" fill="#ffffff">3.77%</text>
<text text-anchor="middle" x="572.5" y="-110" font-family="Arial" font-size="10.00" fill="#ffffff">(3.77%)</text>
<text text-anchor="middle" x="572.5" y="-99" font-family="Arial" font-size="10.00" fill="#ffffff">1766×</text>
</a>
</g>
</g>
<!-- 595&#45;&gt;843 -->
<g id="edge19" class="edge">
<title>595&#45;&gt;843</title>
<path fill="none" stroke="#0d1d78" stroke-width="0.5" d="M594.14,-183.93C590.4,-172.71 585.97,-159.42 582.1,-147.8"/>
<polygon fill="#0d1d78" stroke="#0d1d78" stroke-width="0.5" points="583.18,-147.18 580.92,-144.25 580.86,-147.96 583.18,-147.18"/>
<text text-anchor="middle" x="604.5" y="-167" font-family="Arial" font-size="10.00" fill="#0d1d78">3.77%</text>
<text text-anchor="middle" x="604.5" y="-156" font-family="Arial" font-size="10.00" fill="#0d1d78">1766×</text>
</g>
<!-- 815 -->
<g id="node19" class="node">
<title>815</title>
<g id="a_node19"><a xlink:title="~">
<polygon fill="#0d0f74" stroke="#0d0f74" points="462,-696 279,-696 279,-644 462,-644 462,-696"/>
<text text-anchor="middle" x="370.5" y="-684" font-family="Arial" font-size="10.00" fill="#ffffff">~:0:&lt;pyarrow._compute.call_function&gt;</text>
<text text-anchor="middle" x="370.5" y="-673" font-family="Arial" font-size="10.00" fill="#ffffff">0.62%</text>
<text text-anchor="middle" x="370.5" y="-662" font-family="Arial" font-size="10.00" fill="#ffffff">(0.62%)</text>
<text text-anchor="middle" x="370.5" y="-651" font-family="Arial" font-size="10.00" fill="#ffffff">8830×</text>
</a>
</g>
</g>
<!-- 816&#45;&gt;815 -->
<g id="edge20" class="edge">
<title>816&#45;&gt;815</title>
<path fill="none" stroke="#0d0f74" stroke-width="0.5" d="M370.5,-735.93C370.5,-724.71 370.5,-711.42 370.5,-699.8"/>
<polygon fill="#0d0f74" stroke="#0d0f74" stroke-width="0.5" points="371.73,-699.75 370.5,-696.25 369.28,-699.75 371.73,-699.75"/>
<text text-anchor="middle" x="384.5" y="-719" font-family="Arial" font-size="10.00" fill="#0d0f74">0.62%</text>
<text text-anchor="middle" x="384.5" y="-708" font-family="Arial" font-size="10.00" fill="#0d0f74">8830×</text>
</g>
</g>
</svg>
